<svg xmlns="http://www.w3.org/2000/svg" viewBox="0 0 512 512"><rect width="512" height="512" rx="50" ry="50" fill="#b3ddf7"/><path d="M188.232 0L188.232-88.477L198.779-108.398L198.779 0L188.232 0ZM209.326 0L209.326-128.906L219.873-148.828L219.873 0L209.326 0ZM230.420 0L230.420-168.750L240.967-188.818L240.967 0L230.420 0ZM238.184-242.578L159.668-93.457L153.662-104.443L226.318-242.578L238.184-242.578ZM214.307-242.578L147.510-116.455L141.357-127.588L202.295-242.578L214.307-242.578ZM76.904 0L76.904-107.227L87.451-87.305L87.451 0L76.904 0ZM55.811 0L55.811-147.363L66.357-127.441L66.357 0L55.811 0ZM34.717 0L34.717-187.500L45.264-167.432L45.264 0L34.717 0ZM25.488-242.578L119.971-63.281L108.105-63.281L24.170-222.510L24.170 0L13.623 0L13.623-242.578L25.488-242.578ZM49.512-242.578L143.848-63.281L131.836-63.281L37.500-242.578L49.512-242.578ZM251.514 0L251.514-222.510L167.578-63.281L155.566-63.281L61.377-242.578L73.242-242.578L161.719-74.414L250.049-242.578L262.061-242.578L262.061 0L251.514 0ZM425.098-63.281L353.174-63.281L353.174-179.297Q353.174-179.297 425.098-179.297L425.098-179.297Q442.529-179.297 455.054-162.231Q467.578-145.166 467.578-121.289L467.578-121.289Q467.578-97.266 455.054-80.273Q442.529-63.281 425.098-63.281L425.098-63.281ZM363.721-168.750L363.721-73.828L425.098-73.828Q438.135-73.828 447.437-87.744Q456.738-101.660 456.738-121.289L456.738-121.289Q456.738-141.064 447.437-154.907Q438.135-168.750 425.098-168.750L425.098-168.750L363.721-168.750ZM342.627-189.844L342.627-52.734L425.098-52.734Q446.924-52.734 462.671-72.876Q478.418-93.018 478.418-121.289L478.418-121.289Q478.418-139.893 471.167-155.713Q463.916-171.533 451.685-180.688Q439.453-189.844 425.098-189.844L425.098-189.844L342.627-189.844ZM425.098-42.188L332.080-42.188L332.080-200.391L425.098-200.391Q442.236-200.391 457.031-189.844Q471.826-179.297 480.542-161.060Q489.258-142.822 489.258-121.289L489.258-121.289Q489.258-99.902 480.542-81.592Q471.826-63.281 457.031-52.734Q442.236-42.188 425.098-42.188L425.098-42.188ZM321.533-210.938L321.533-31.641L425.098-31.641Q445.166-31.641 462.378-43.652Q479.590-55.664 489.844-76.318Q500.098-96.973 500.098-121.289L500.098-121.289Q500.098-145.459 489.844-166.187Q479.590-186.914 462.305-198.926Q445.020-210.938 425.098-210.938L425.098-210.938L321.533-210.938ZM425.098-21.094L310.986-21.094L310.986-221.484L425.098-221.484Q447.949-221.484 467.725-208.081Q487.500-194.678 499.219-171.533Q510.938-148.389 510.938-121.289Q510.938-94.189 499.219-71.045Q487.500-47.900 467.725-34.497Q447.949-21.094 425.098-21.094L425.098-21.094ZM300.439-232.031L300.439-10.547L425.098-10.547Q444.287-10.547 462.158-19.336Q480.029-28.125 493.066-42.920Q506.104-57.715 513.940-78.296Q521.777-98.877 521.777-121.289Q521.777-143.701 513.940-164.209Q506.104-184.717 493.066-199.585Q480.029-214.453 462.158-223.242Q444.287-232.031 425.098-232.031L425.098-232.031L300.439-232.031ZM425.098 0L425.098 0L289.893 0L289.893-242.578L425.098-242.578Q453.662-242.578 478.418-226.318Q503.174-210.059 517.896-182.080Q532.617-154.102 532.617-121.289L532.617-121.289Q532.617-96.680 523.901-74.194Q515.186-51.709 500.684-35.449Q486.182-19.189 466.333-9.595Q446.484 0 425.098 0Z" fill="#000a29" transform="translate(-17.120009422302246, 377.28900146484375)"/></svg>